<svg version="1.0" xmlns="http://www.w3.org/2000/svg"
 width="604.000000pt" height="604.000000pt" viewBox="0 0 604.000000 604.000000"
 preserveAspectRatio="xMidYMid meet">
<metadata>
Created by potrace 1.14, written by Peter Selinger 2001-2017
</metadata>
<g transform="translate(0.000000,604.000000) scale(0.100000,-0.100000)"
fill="#000000" stroke="none">
<path d="M25 5966 c0 -41 4 -78 8 -83 5 -4 133 -8 285 -8 l277 0 1 -2850 c0
-1567 -3 -2854 -7 -2860 -4 -6 -110 -10 -282 -9 -312 0 -283 9 -282 -91 l0
-60 1445 -1 c795 -1 1483 2 1530 6 47 5 117 11 155 14 39 4 87 8 108 11 20 3
56 7 80 10 23 3 53 8 67 10 14 3 43 7 65 10 22 3 51 7 65 10 26 5 58 11 113
21 17 3 50 9 72 15 22 5 51 11 65 14 62 10 338 85 385 105 11 4 49 18 85 30
36 12 74 26 85 30 11 5 58 25 105 44 99 40 301 142 380 191 30 19 62 37 70 41
15 7 131 85 140 94 3 3 34 27 70 55 82 62 260 240 325 325 27 36 55 71 62 78
7 7 13 17 13 22 0 5 6 15 13 22 7 7 24 31 37 53 13 22 27 42 30 45 4 3 13 19
22 35 8 17 38 76 67 132 81 160 184 443 215 593 3 14 15 68 26 120 11 52 23
110 25 128 3 17 7 48 10 68 3 20 7 39 9 43 3 5 7 33 22 181 32 300 35 732 9
1000 -3 25 -7 70 -10 101 -4 50 -12 109 -30 229 -6 35 -22 115 -50 245 -8 39
-20 81 -25 95 -5 14 -11 34 -13 45 -2 11 -6 27 -9 35 -3 8 -16 44 -28 80 -47
138 -109 280 -178 405 -31 57 -130 211 -158 245 -126 156 -251 276 -399 384
-49 36 -94 70 -100 74 -25 19 -116 72 -124 72 -5 0 -11 4 -13 8 -5 14 -238
127 -348 170 -166 64 -420 142 -540 166 -14 3 -36 7 -50 10 -70 15 -159 32
-220 42 -19 3 -45 7 -56 9 -12 2 -46 6 -75 10 -30 3 -67 8 -84 10 -43 6 -144
16 -190 20 -22 2 -40 4 -40 5 0 9 -348 12 -1675 16 l-1555 5 0 -75z m2740
-100 c44 -4 98 -9 120 -12 22 -2 56 -7 75 -9 19 -2 60 -9 90 -15 30 -6 71 -13
90 -16 60 -10 242 -75 315 -112 74 -37 150 -85 176 -111 8 -9 28 -27 45 -41
95 -81 227 -275 282 -415 9 -22 19 -42 22 -45 6 -5 75 -206 91 -267 5 -18 14
-50 19 -70 11 -41 18 -67 24 -98 9 -39 27 -131 32 -160 7 -44 13 -77 18 -100
2 -11 7 -47 10 -80 4 -33 10 -74 12 -91 9 -61 17 -143 29 -304 24 -326 24
-1381 0 -1680 -3 -30 -7 -86 -11 -125 -3 -38 -7 -88 -9 -110 -5 -58 -14 -129
-26 -204 -5 -36 -11 -82 -14 -101 -2 -19 -7 -51 -11 -70 -3 -19 -8 -46 -9 -60
-2 -14 -4 -25 -5 -25 -3 0 -16 -58 -24 -106 -3 -19 -10 -50 -16 -69 -6 -19
-13 -46 -16 -59 -13 -63 -96 -297 -136 -381 -46 -97 -118 -222 -144 -247 -8
-8 -14 -19 -14 -24 0 -5 -48 -58 -107 -117 -104 -103 -166 -151 -263 -203 -25
-13 -47 -26 -50 -29 -5 -5 -27 -14 -140 -57 -74 -28 -242 -70 -310 -78 -123
-13 -203 -17 -405 -18 l-220 -2 -2 2860 -1 2861 201 -2 c111 -1 238 -4 282 -8z"/>
</g>
</svg>
